<svg xmlns="http://www.w3.org/2000/svg" width="512" height="512" viewBox="0 0 512 512" version="1.1"><path d="M 100 373 L 100 412 122.500 412 L 145 412 145 373 L 145 334 122.500 334 L 100 334 100 373" stroke="none" fill="#8e8ee1" fill-rule="evenodd"/><path d="M 211 300.500 L 211 412 233.500 412 L 256 412 256 300.500 L 256 189 233.500 189 L 211 189 211 300.500" stroke="none" fill="#8fe48c" fill-rule="evenodd"/><path d="M 321 239 L 321 412 344 412 L 367 412 367 239 L 367 66 344 66 L 321 66 321 239" stroke="none" fill="#e7e48c" fill-rule="evenodd"/><path d="M 432 300.500 L 432 412 454.500 412 L 477 412 477 300.500 L 477 189 454.500 189 L 432 189 432 300.500" stroke="none" fill="#e08e8e" fill-rule="evenodd"/><path d="M 0 256.002 L 0 512.004 256.250 511.752 L 512.500 511.500 512.503 255.500 L 512.506 -0.500 512.251 238.750 L 511.996 478 272.998 478 L 34 478 34 239 L 34 0 17 0 L 0 0 0 256.002 M 0.492 256.500 L 0.492 512.500 0.750 384.170 L 1.008 255.839 0.750 128.170 L 0.492 0.500 0.492 256.500 M 288.765 94.750 L 289.030 156 233.015 156 L 177 156 177 228.500 L 177 301 122 301 L 67 301 67 373 L 67 445 288.500 445 L 510 445 510 300.500 L 510 156 455 156 L 400 156 400 95.016 L 400 34.033 344.250 33.766 L 288.500 33.500 288.765 94.750 M 321 239 L 321 412 344 412 L 367 412 367 239 L 367 66 344 66 L 321 66 321 239 M 211 300.500 L 211 412 233.500 412 L 256 412 256 300.500 L 256 189 233.500 189 L 211 189 211 300.500 M 432 300.500 L 432 412 454.500 412 L 477 412 477 300.500 L 477 189 454.500 189 L 432 189 432 300.500 M 100 373 L 100 412 122.500 412 L 145 412 145 373 L 145 334 122.500 334 L 100 334 100 373" stroke="none" fill="#000000" fill-rule="evenodd"/></svg>